<?xml version="1.0" encoding="UTF-8"?>
<svg width="56px" height="56px" viewBox="0 0 56 56" version="1.1" xmlns="http://www.w3.org/2000/svg" xmlns:xlink="http://www.w3.org/1999/xlink">
    <!-- Generator: Sketch 61 (89581) - https://sketch.com -->
    <title>Shape</title>
    <desc>Created with Sketch.</desc>
    <g id="Page-1" stroke="none" stroke-width="1" fill="none" fill-rule="evenodd">
        <g id="one-pager-1920" transform="translate(-552.000000, -2922.000000)" fill="#0082FF">
            <path d="M601.984375,2958.29117 C599.236109,2958.29117 596.914188,2960.14632 596.198,2962.67091 L590.390625,2962.67091 L590.390625,2956.25952 L596.320172,2956.25952 C602.7605,2956.25952 608,2951.01435 608,2944.56704 C608,2939.39775 604.57525,2934.85661 599.713313,2933.37758 C598.243641,2927.48639 592.931516,2923.26115 586.779281,2923.26115 C584.394359,2923.26115 582.109734,2923.87683 580.093516,2925.05312 C577.958188,2923.09822 575.158297,2922 572.216437,2922 C565.906266,2922 560.748797,2927.03571 560.542953,2933.30334 C555.548781,2934.70081 552,2939.2784 552,2944.56704 C552,2951.01435 557.2395,2956.25952 563.679828,2956.25952 L569.609375,2956.25952 L569.609375,2962.67091 L563.802,2962.67091 C563.085922,2960.14632 560.763891,2958.29117 558.015625,2958.29117 C554.698609,2958.29117 552,2960.99271 552,2964.31332 C552,2967.63392 554.698609,2970.33546 558.015625,2970.33546 C560.763891,2970.33546 563.085812,2968.48031 563.802,2965.95572 L571.25,2965.95572 C572.156062,2965.95572 572.890625,2965.22036 572.890625,2964.31332 L572.890625,2956.25952 L578.359375,2956.25952 L578.359375,2966.18522 C575.837516,2966.90207 573.984375,2969.22662 573.984375,2971.97786 C573.984375,2975.29847 576.682984,2978 580,2978 C583.317016,2978 586.015625,2975.29847 586.015625,2971.97786 C586.015625,2969.22662 584.162484,2966.90218 581.640625,2966.18522 L581.640625,2956.25952 L587.109375,2956.25952 L587.109375,2964.31332 C587.109375,2965.22036 587.843938,2965.95572 588.75,2965.95572 L596.198,2965.95572 C596.914078,2968.48031 599.236109,2970.33546 601.984375,2970.33546 C605.301391,2970.33546 608,2967.63392 608,2964.31332 C608,2960.99271 605.301391,2958.29117 601.984375,2958.29117 Z M558.015625,2967.05065 C556.507891,2967.05065 555.28125,2965.82268 555.28125,2964.31332 C555.28125,2962.80395 556.507891,2961.57598 558.015625,2961.57598 C559.523359,2961.57598 560.75,2962.80395 560.75,2964.31332 C560.75,2965.82268 559.523359,2967.05065 558.015625,2967.05065 Z M582.734375,2971.97786 C582.734375,2973.48723 581.507734,2974.7152 580,2974.7152 C578.492266,2974.7152 577.265625,2973.48723 577.265625,2971.97786 C577.265625,2970.46849 578.492266,2969.24052 580,2969.24052 C581.507734,2969.24052 582.734375,2970.46849 582.734375,2971.97786 Z M563.679828,2952.97472 C559.048891,2952.97472 555.28125,2949.20311 555.28125,2944.56704 C555.28125,2940.42348 558.366391,2936.8471 562.457344,2936.24817 C563.320641,2936.12181 563.934016,2935.34112 563.853516,2934.47153 C563.829781,2934.21498 563.81775,2933.95286 563.81775,2933.69237 C563.81775,2929.05653 567.585391,2925.28491 572.216328,2925.28491 C574.687109,2925.28491 577.017125,2926.36014 578.60875,2928.23489 C579.167547,2928.89305 580.14,2929.00539 580.833984,2928.49209 C582.554672,2927.2189 584.610484,2926.54595 586.779172,2926.54595 C591.769734,2926.54595 595.919969,2930.21168 596.695766,2934.98023 C596.805469,2935.65449 597.320734,2936.19035 597.989563,2936.32591 C601.888672,2937.11612 604.718641,2940.58192 604.718641,2944.56704 C604.718641,2949.20311 600.951,2952.97472 596.320062,2952.97472 L563.679828,2952.97472 Z M601.984375,2967.05065 C600.476641,2967.05065 599.25,2965.82268 599.25,2964.31332 C599.25,2962.80395 600.476641,2961.57598 601.984375,2961.57598 C603.492109,2961.57598 604.71875,2962.80395 604.71875,2964.31332 C604.71875,2965.82268 603.492109,2967.05065 601.984375,2967.05065 Z" id="Shape"></path>
        </g>
    </g>
</svg>