<?xml version="1.0" encoding="utf-8"?>
<!-- Generator: Adobe Illustrator 21.1.0, SVG Export Plug-In . SVG Version: 6.00 Build 0)  -->
<svg version="1.1" id="Layer_1" xmlns="http://www.w3.org/2000/svg" xmlns:xlink="http://www.w3.org/1999/xlink" x="0px" y="0px"
	 viewBox="0 0 200 120" style="enable-background:new 0 0 200 120;" xml:space="preserve">
<style type="text/css">
	.st0{fill:#004A60;}
	.st1{fill:url(#SVGID_1_);}
	.st2{fill:url(#SVGID_2_);}
	.st3{fill:url(#SVGID_3_);}
	.st4{fill:url(#SVGID_4_);}
	.st5{fill:url(#SVGID_5_);}
</style>
<g>
	<g>
		<path class="st0" d="M89.9,54.5l-2.1,2.6c-1.1-1.3-2.7-2.1-4.2-2.1c-2.7,0-4.9,2.1-4.9,4.9c0,2.8,2.1,4.9,4.9,4.9
			c1.4,0,3-0.7,4.2-1.9l2.1,2.3c-1.7,1.7-4.1,2.9-6.5,2.9c-4.8,0-8.4-3.6-8.4-8.2s3.7-8.1,8.5-8.1C85.9,51.9,88.3,52.9,89.9,54.5z"
			/>
		<path class="st0" d="M106.2,61.3c0,4.2-2.8,6.9-7.2,6.9c-4.4,0-7.3-2.6-7.3-6.9V52h3.6v9.3c0,2.3,1.5,3.7,3.7,3.7s3.6-1.4,3.6-3.7
			V52h3.6C106.2,52,106.2,61.3,106.2,61.3z"/>
		<path class="st0" d="M115.4,52.1c3.5,0,5.7,1.5,5.7,4c0,1.7-1.1,3.1-2.8,3.5c2.1,0.4,3.3,1.9,3.3,4.1c0,2.7-2.3,4.4-6,4.4H108v-16
			H115.4z M111.7,58.6h3.6c1.4,0,2.2-0.7,2.2-1.8s-0.8-1.7-2.2-1.7h-3.6V58.6z M111.7,65.2h3.6c1.7,0,2.7-0.7,2.7-1.9
			s-1-1.9-2.7-1.9h-3.6V65.2z"/>
		<path class="st0" d="M127.2,55.1v3.5h7.7v3h-7.7v3.6h8.8v3h-12.5v-16h12.2v3L127.2,55.1L127.2,55.1z"/>
		<path class="st0" d="M145.4,54.6v13.6h-2.7V54.6h-5.1v-2.4h12.9v2.4H145.4z"/>
		<path class="st0" d="M155,54.6v4.3h7.8v2.4H155v4.4h9v2.4h-11.7v-16h11.5v2.5H155z"/>
		<path class="st0" d="M169.4,64.6l-1.5,3.6h-2.8l7.1-16h2.8l7,16h-2.9l-1.5-3.6H169.4z M173.5,55l-3,7.1h6L173.5,55z"/>
		<path class="st0" d="M197.5,68.2v-12l-5.1,10.3h-1.8l-5.1-10.3v12H183v-16h3.2l5.3,10.7l5.3-10.7h3.2v16
			C200,68.2,197.5,68.2,197.5,68.2z"/>
	</g>
	<g>
		
			<linearGradient id="SVGID_1_" gradientUnits="userSpaceOnUse" x1="33.123" y1="2.5737" x2="100.2465" y2="118.8349" gradientTransform="matrix(1 0 0 -1 0 122)">
			<stop  offset="0" style="stop-color:#8DD7F7"/>
			<stop  offset="0.25" style="stop-color:#1997D4"/>
			<stop  offset="0.5" style="stop-color:#705DA6"/>
			<stop  offset="0.75" style="stop-color:#ED4050"/>
			<stop  offset="1" style="stop-color:#F48D7D"/>
		</linearGradient>
		<path class="st1" d="M114.1,84.1c-4.5,0-8.3,2.7-10,6.6l-43.8-9.8c-0.2-3.1-2.4-5.7-5.3-6.6V50.4c3-0.9,5.2-3.7,5.2-7
			c0-0.1,0-0.2,0-0.2L104.6,29c1.8,3.4,5.4,5.7,9.6,5.7c6,0,10.9-4.9,10.9-10.9s-4.9-10.9-10.9-10.9c-4.9,0-9,3.2-10.4,7.6
			l-51.4-6.2C52.3,6.4,45.8,0,37.9,0c-8,0-14.5,6.5-14.5,14.5c0,3.1,1,6,2.7,8.4l-12,11.2c-1.4-1-3.2-1.5-5.1-1.5
			c-5,0-9.1,4.1-9.1,9.1c0,4.3,3,7.9,7.1,8.8v25.2c-4,0.9-7,4.5-7,8.8c0,5,4.1,9.1,9.1,9.1c2.3,0,4.4-0.8,6-2.2l10.1,7.3
			c-1.1,2-1.7,4.4-1.7,6.8c0,8,6.5,14.5,14.5,14.5s14.5-6.5,14.5-14.5l51.4-7.1c1.4,4.3,5.5,7.4,10.3,7.4c6,0,10.9-4.9,10.9-10.9
			C125,89,120.2,84.1,114.1,84.1z M40,80.2V45l5.9,0.2c0.6,2.5,2.6,4.5,5.1,5.2l0.1,23.9c-2.5,0.7-4.5,2.8-5.1,5.4L40,80.2z
			 M17.7,81.8c-1-3.1-3.5-5.4-6.7-6.2V50.5c3.3-0.7,5.9-3.2,6.7-6.4l18,0.7v35.7L17.7,81.8z M35.8,28.9v11.8L18,40
			c-0.2-1-0.6-2-1.1-2.9l11.9-11.2C30.8,27.4,33.2,28.5,35.8,28.9z M59,39.4c-1.3-1.9-3.5-3.2-6-3.2c-3.2,0-5.9,2.1-6.9,4.9L40,40.9
			v-12c5.8-0.8,10.5-5.1,12-10.6l51.4,6.2c0,0.2,0,0.5,0.1,0.7L59,39.4z M17.4,88.1c0.3-0.7,0.5-1.4,0.6-2.2l17.8-1.3v6.5
			c-3.3,0.5-6.2,2-8.4,4.3L17.4,88.1z M51.9,101.6C50.4,96.1,45.7,92,40,91.2v-6.8l6.4-0.5c1,2.7,3.7,4.7,6.8,4.7
			c2.7,0,5.1-1.5,6.4-3.8l43.4,9.7L51.9,101.6z"/>
		
			<linearGradient id="SVGID_2_" gradientUnits="userSpaceOnUse" x1="39.9578" y1="39.9" x2="45.3679" y2="39.9" gradientTransform="matrix(1 0 0 -1 0 122)">
			<stop  offset="0" style="stop-color:#000000;stop-opacity:0.2"/>
			<stop  offset="1" style="stop-color:#000000;stop-opacity:0"/>
		</linearGradient>
		<polygon class="st2" points="40,80.2 40,84.4 45.4,84 45.4,79.8 		"/>
		
			<linearGradient id="SVGID_3_" gradientUnits="userSpaceOnUse" x1="35.8292" y1="39.25" x2="30.4292" y2="39.25" gradientTransform="matrix(1 0 0 -1 0 122)">
			<stop  offset="0" style="stop-color:#000000;stop-opacity:0.2"/>
			<stop  offset="1" style="stop-color:#000000;stop-opacity:0"/>
		</linearGradient>
		<polygon class="st3" points="30.4,80.9 30.4,85 35.8,84.7 35.8,80.5 		"/>
		
			<linearGradient id="SVGID_4_" gradientUnits="userSpaceOnUse" x1="39.9578" y1="4473.1465" x2="45.3679" y2="4473.1465" gradientTransform="matrix(1 0 0 1 0 -4430.0967)">
			<stop  offset="0" style="stop-color:#000000;stop-opacity:0.2"/>
			<stop  offset="1" style="stop-color:#000000;stop-opacity:0"/>
		</linearGradient>
		<polygon class="st4" points="40,45 40,40.9 45.4,41.1 45.4,45.2 		"/>
		
			<linearGradient id="SVGID_5_" gradientUnits="userSpaceOnUse" x1="35.8291" y1="4472.7466" x2="30.4291" y2="4472.7466" gradientTransform="matrix(1 0 0 1 0 -4430.0967)">
			<stop  offset="0" style="stop-color:#000000;stop-opacity:0.2"/>
			<stop  offset="1" style="stop-color:#000000;stop-opacity:0"/>
		</linearGradient>
		<polygon class="st5" points="30.4,44.6 30.4,40.5 35.8,40.7 35.8,44.8 		"/>
	</g>
</g>
</svg>
