<?xml version="1.0" encoding="UTF-8"?>
<svg width="583px" height="394px" viewBox="0 0 583 394" version="1.1" xmlns="http://www.w3.org/2000/svg" xmlns:xlink="http://www.w3.org/1999/xlink">
    <!-- Generator: Sketch 61 (89581) - https://sketch.com -->
    <title>Group 44</title>
    <desc>Created with Sketch.</desc>
    <defs>
        <linearGradient x1="58.5682333%" y1="81.9103846%" x2="58.5682333%" y2="-4.34064128%" id="linearGradient-1">
            <stop stop-color="#E3FDF5" stop-opacity="0" offset="0%"></stop>
            <stop stop-color="#BFE6FF" offset="100%"></stop>
        </linearGradient>
        <circle id="path-2" cx="601" cy="143.5" r="2.5"></circle>
        <filter x="-210.0%" y="-190.0%" width="520.0%" height="520.0%" filterUnits="objectBoundingBox" id="filter-3">
            <feMorphology radius="4" operator="dilate" in="SourceAlpha" result="shadowSpreadOuter1"></feMorphology>
            <feOffset dx="0" dy="1" in="shadowSpreadOuter1" result="shadowOffsetOuter1"></feOffset>
            <feGaussianBlur stdDeviation="2" in="shadowOffsetOuter1" result="shadowBlurOuter1"></feGaussianBlur>
            <feComposite in="shadowBlurOuter1" in2="SourceAlpha" operator="out" result="shadowBlurOuter1"></feComposite>
            <feColorMatrix values="0 0 0 0 0   0 0 0 0 0   0 0 0 0 0  0 0 0 0.2 0" type="matrix" in="shadowBlurOuter1"></feColorMatrix>
        </filter>
        <circle id="path-4" cx="891" cy="113.5" r="2.5"></circle>
        <filter x="-210.0%" y="-190.0%" width="520.0%" height="520.0%" filterUnits="objectBoundingBox" id="filter-5">
            <feMorphology radius="4" operator="dilate" in="SourceAlpha" result="shadowSpreadOuter1"></feMorphology>
            <feOffset dx="0" dy="1" in="shadowSpreadOuter1" result="shadowOffsetOuter1"></feOffset>
            <feGaussianBlur stdDeviation="2" in="shadowOffsetOuter1" result="shadowBlurOuter1"></feGaussianBlur>
            <feComposite in="shadowBlurOuter1" in2="SourceAlpha" operator="out" result="shadowBlurOuter1"></feComposite>
            <feColorMatrix values="0 0 0 0 0   0 0 0 0 0   0 0 0 0 0  0 0 0 0.2 0" type="matrix" in="shadowBlurOuter1"></feColorMatrix>
        </filter>
    </defs>
    <g id="Page-1" stroke="none" stroke-width="1" fill="none" fill-rule="evenodd">
        <g id="one-pager" transform="translate(0.000000, -3272.000000)">
            <g id="Group-44" transform="translate(-443.000000, 3272.000000)">
                <g id="Group-30" transform="translate(0.000000, 142.000000)">
                    <rect id="Rectangle-47" fill="#E6E6E6" x="506.5" y="0" width="1" height="230"></rect>
                    <rect id="Rectangle-47" fill="#E6E6E6" x="616.5" y="0" width="1" height="230"></rect>
                    <rect id="Rectangle-47" fill="#E6E6E6" x="716.5" y="0" width="1" height="230"></rect>
                    <rect id="Rectangle-47" fill="#E6E6E6" x="816.5" y="0" width="1" height="230"></rect>
                    <rect id="Rectangle-47" fill="#E6E6E6" x="916.5" y="0" width="1" height="230"></rect>
                    <polygon id="Path-12" fill="url(#linearGradient-1)" points="1.25431694 230 10.5417431 215.782993 34.7890913 215.782993 52.4699667 207.938623 80.0732757 207.938623 94.0363426 196.808916 109.024645 172.723388 132.722126 183.473697 145.308753 186.813234 160.953348 183.473697 175.107981 162.70686 218.682257 202.689587 238.229132 186.813234 259.514295 192.856505 271.373678 175.63975 290.001744 168.385324 299.885154 159.613306 311.364952 172.723388 311.364952 183.473697 322.106865 175.63975 344.207959 114.410727 356.964867 196.808916 371.584226 186.813234 371.584226 178.787504 400.180843 159.613306 442.733431 172.205363 454.170659 168.385324 470.524759 178.787504 494.640849 159.613306 506.000031 168.385324 518.451851 175.63975 539.307763 178.787504 544.047259 172.205363 557.705239 168.385324 573.11215 150.591134 587.089407 153.422028 601.435607 144.454057 628.595475 215.782993 644.133644 202.689587 670.445653 202.689587 701.837721 212.216233 719.3696 168.385324 728.181657 172.205363 744.429332 168.385324 756.739251 172.205363 765.07594 172.205363 765.07594 178.787504 794.06988 178.787504 803.151549 137.579029 815.596274 137.579029 830.69455 144.454057 873.044929 132.371685 891.300504 114.410727 898.977353 124.252148 916.062244 132.371685 941.533489 124.252148 978.410034 90 1024.75493 117.87951 1024.75493 288.163404 0 288.163404"></polygon>
                    <polyline id="Path-12" stroke="#29B6F6" stroke-width="2" stroke-linecap="round" stroke-linejoin="round" points="0.5 230 9.79195767 215.782993 34.0511367 215.782993 51.740639 207.938623 79.3574162 207.938623 93.327296 196.808916 108.322911 172.723388 132.031955 183.473697 144.624723 186.813234 160.276951 183.473697 174.438491 162.70686 218.034028 202.689587 237.59044 186.813234 258.885989 192.856505 270.751159 175.63975 289.388313 168.385324 299.276546 159.613306 310.761945 172.723388 310.761945 183.473697 321.509098 175.63975 343.620976 114.410727 356.384108 196.808916 371.010601 186.813234 371.010601 178.787504 399.62117 159.613306 442.194521 172.205363 453.637329 168.385324 469.999409 178.787504 494.127266 159.613306 505.49199 168.385324 517.949886 175.63975 538.815974 178.787504 543.557783 172.205363 557.222427 168.385324 572.636854 150.591134 586.620931 153.422028 600.974131 144.454057 628.147251 215.782993 643.693001 202.689587 670.017849 202.689587 701.425233 212.216233 718.965667 168.385324 727.782024 172.205363 744.037626 168.385324 756.353552 172.205363 764.694308 172.205363 764.694308 178.787504 793.702394 178.787504 802.788495 137.579029 815.239292 137.579029 830.344935 144.454057 872.715978 132.371685 890.98046 114.410727 898.661055 124.252148 915.754281 132.371685 941.237955 124.252148 978.132492 90 1024.5 117.87951"></polyline>
                    <g id="Oval-18">
                        <use fill="black" fill-opacity="1" filter="url(#filter-3)" xlink:href="#path-2"></use>
                        <circle stroke="#FFFFFF" stroke-width="4" fill="#29B6F6" fill-rule="evenodd" cx="601" cy="143.5" r="4.5"></circle>
                    </g>
                    <g id="Oval-18">
                        <use fill="black" fill-opacity="1" filter="url(#filter-5)" xlink:href="#path-4"></use>
                        <circle stroke="#FFFFFF" stroke-width="4" fill="#29B6F6" fill-rule="evenodd" cx="891" cy="113.5" r="4.5"></circle>
                    </g>
                </g>
                <g id="Group-28" transform="translate(601.000000, 0.000000)">
                    <path d="M62.694,138.323 C62.073,138.323 61.452,138.201 60.95,137.955 C61.452,138.2 62.073,138.323 62.694,138.323 L62.694,133.152 C63.385,133.152 64.076,133 64.604,132.696 L80.617,123.451 L80.627,123.456 L123.501,98.702 C124.389,98.187 124.526,97.403 123.911,96.805 C124.757,97.52 125.388,98.76 125.388,99.807 L125.388,100.567 C125.387,101.785 124.533,103.266 123.478,103.875 L64.604,137.867 C64.076,138.171 63.385,138.323 62.694,138.323" id="Fill-63" fill="#9CCFFF"></path>
                    <path d="M62.694,138.323 C62.003,138.323 61.312,138.171 60.784,137.867 L1.909,103.875 C0.854,103.266 2.06057393e-13,101.785 2.06057393e-13,100.567 L2.06057393e-13,99.807 C2.06057393e-13,98.589 0.854,97.108 1.909,96.499 L4.478,95.016 L1.909,96.499 C1.382,96.804 1.118,97.202 1.118,97.601 C1.118,98 1.382,98.399 1.909,98.704 L60.785,132.696 C61.312,133 62.003,133.152 62.694,133.152 L62.694,138.323" id="Fill-65" fill="#9CCFFF"></path>
                    <path d="M62.694,133.152 L62.694,133.152 C62.003,133.152 61.312,133 60.785,132.696 L1.909,98.704 C1.382,98.399 1.118,98 1.118,97.601 C1.118,97.202 1.382,96.804 1.909,96.499 L31.346,79.503 L31.356,79.509 L17.93,87.261 L31.247,94.948 C30.799,96.827 30.83,98.75 31.352,100.652 C31.921,102.727 32.904,104.479 34.539,106.332 C40.144,112.683 51.287,116.349 62.794,116.349 C64.492,116.349 66.198,116.269 67.895,116.106 L80.617,123.451 L64.604,132.696 C64.076,133 63.385,133.152 62.694,133.152" id="Fill-67" fill="#C6E4FF"></path>
                    <path d="M59.94,97.861 L32.316,100.388 C29.66,90.704 41.103,81.61 57.875,80.077 C67.938,79.157 77.221,80.898 84.426,85.057 L65.071,96.232 C63.753,96.993 61.456,97.723 59.94,97.861" id="Fill-68" fill="#100C0C"></path>
                    <path d="M63.124,80.833 C61.437,80.833 59.716,80.913 57.965,81.073 C47.609,82.019 38.788,86.054 34.944,91.601 C33.245,94.053 32.613,96.702 33.094,99.312 L59.849,96.865 C61.217,96.74 63.38,96.054 64.571,95.366 L82.379,85.085 C76.864,82.276 70.307,80.833 63.124,80.833 M32.316,101.388 C31.869,101.388 31.472,101.09 31.352,100.652 C30.403,97.194 31.077,93.67 33.3,90.462 C37.535,84.349 46.688,80.096 57.784,79.081 C68.109,78.138 77.499,79.904 84.926,84.191 C85.235,84.37 85.426,84.7 85.426,85.057 C85.426,85.415 85.235,85.745 84.926,85.924 L65.571,97.099 C64.126,97.933 61.692,98.705 60.031,98.857 L32.407,101.384 L32.316,101.388" id="Fill-69" fill="#FAF9F6"></path>
                    <path d="M64.508,99.677 L76.644,113.428 C61.513,117.878 42.998,114.405 35.289,105.67 C33.747,103.923 32.847,102.324 32.316,100.388 L59.94,97.861 C61.456,97.723 63.501,98.535 64.508,99.677" id="Fill-70" fill="#0082FF"></path>
                    <path d="M33.659,101.269 C34.167,102.568 34.916,103.736 36.038,105.008 C43.248,113.176 60.366,116.577 74.833,112.888 L63.758,100.339 C62.966,99.439 61.222,98.742 60.031,98.857 L33.659,101.269 M62.794,116.349 C51.287,116.349 40.144,112.683 34.539,106.332 C32.904,104.479 31.921,102.727 31.352,100.652 C31.273,100.367 31.325,100.061 31.494,99.818 C31.663,99.575 31.93,99.419 32.225,99.391 L59.849,96.865 C61.667,96.697 64.047,97.642 65.258,99.015 L77.394,112.766 C77.62,113.022 77.699,113.376 77.605,113.705 C77.51,114.033 77.254,114.291 76.926,114.387 C72.4,115.719 67.564,116.348 62.794,116.349" id="Fill-71" fill="#FAF9F6"></path>
                    <path d="M65.429,97.359 L93.053,94.833 C95.178,102.58 88.748,109.867 76.644,113.428 L64.508,99.677 C63.501,98.535 63.913,97.498 65.429,97.359" id="Fill-72" fill="#100C0C"></path>
                    <path d="M65.521,98.355 C65.137,98.39 64.97,98.496 64.942,98.529 C64.954,98.535 65.004,98.726 65.258,99.015 L76.969,112.285 C87.669,108.97 93.556,102.645 92.277,95.908 L65.521,98.355 M76.644,114.428 C76.361,114.428 76.087,114.308 75.894,114.09 L63.758,100.339 C63.02,99.502 62.778,98.566 63.093,97.772 C63.409,96.978 64.227,96.465 65.338,96.363 L92.962,93.837 C93.445,93.79 93.89,94.101 94.018,94.568 C96.298,102.882 89.589,110.661 76.926,114.387 C76.833,114.414 76.738,114.428 76.644,114.428" id="Fill-73" fill="#FAF9F6"></path>
                    <path d="M65.071,96.232 L84.426,85.057 C89.229,87.831 91.99,90.96 93.053,94.833 L65.429,97.359 C63.913,97.498 63.753,96.993 65.071,96.232" id="Fill-74" fill="#253C40"></path>
                    <path d="M84.421,86.215 L67.128,96.2 L91.712,93.951 C90.563,90.982 88.212,88.493 84.421,86.215 M64.979,98.385 C64.352,98.385 63.491,98.245 63.235,97.435 C62.886,96.339 64.155,95.606 64.571,95.366 L83.926,84.191 C84.235,84.013 84.616,84.013 84.926,84.191 C89.988,87.114 92.877,90.412 94.018,94.568 C94.096,94.853 94.044,95.159 93.875,95.402 C93.707,95.645 93.439,95.802 93.145,95.829 L65.521,98.355 C65.395,98.367 65.201,98.385 64.979,98.385" id="Fill-75" fill="#FAF9F6"></path>
                    <path d="M123.911,96.805 C123.772,96.688 123.628,96.585 123.479,96.499 L111.954,89.845 L111.963,89.84 L123.5,96.5 C123.662,96.594 123.799,96.696 123.911,96.805" id="Fill-76" fill="#BABCB8"></path>
                    <path d="M80.627,123.456 L80.617,123.451 L123.479,98.704 C124.006,98.4 124.269,98.001 124.269,97.602 C124.269,97.203 124.006,96.804 123.479,96.499 L111.954,89.845 L123.479,96.499 C123.628,96.585 123.772,96.688 123.911,96.805 C124.526,97.403 124.389,98.187 123.501,98.702 L80.627,123.456" id="Fill-77" fill="#83C9BC"></path>
                    <path d="M80.617,123.451 L67.895,116.106 C70.967,115.811 74.011,115.244 76.926,114.387 C86.726,111.503 92.96,106.191 94.221,100.083 L111.954,89.845 L123.479,96.499 C124.006,96.804 124.269,97.203 124.269,97.602 C124.269,98.001 124.006,98.4 123.479,98.704 L80.617,123.451 M31.247,94.948 L17.93,87.261 L31.356,79.509 L39.942,84.466 C37.146,86.158 34.881,88.181 33.3,90.462 C32.3,91.905 31.613,93.412 31.247,94.948" id="Fill-78" fill="#BDDFFF"></path>
                    <path d="M38.024,98.861 L33.076,96.005 C33.336,94.501 33.962,93.018 34.944,91.601 C36.524,89.32 38.945,87.296 41.968,85.636 L61.062,96.66 C60.624,96.76 60.209,96.832 59.849,96.865 L38.024,98.861" id="Fill-79" fill="#100C0C"></path>
                    <path d="M61.678,97.016 C61.203,96.906 60.729,96.846 60.28,96.846 C60.133,96.846 59.989,96.852 59.849,96.865 C60.209,96.832 60.624,96.76 61.062,96.66 L61.678,97.016 M33.076,96.005 L31.247,94.948 C31.613,93.412 32.3,91.905 33.3,90.462 C34.881,88.181 37.146,86.158 39.942,84.466 L41.968,85.636 C38.945,87.296 36.524,89.32 34.944,91.601 C33.962,93.018 33.336,94.501 33.076,96.005" id="Fill-80" fill="#D5D6D0"></path>
                    <path d="M64.814,114.327 L41.028,100.595 L60.031,98.857 C60.118,98.849 60.208,98.845 60.3,98.845 C61.471,98.845 63.024,99.505 63.758,100.339 L74.833,112.888 C71.579,113.717 68.193,114.188 64.814,114.327" id="Fill-81" fill="#0082FF"></path>
                    <path d="M67.895,116.106 L64.814,114.327 C68.193,114.188 71.579,113.717 74.833,112.888 L75.894,114.09 C76.087,114.308 76.361,114.428 76.644,114.428 C76.738,114.428 76.833,114.414 76.926,114.387 C74.011,115.244 70.967,115.811 67.895,116.106 M41.028,100.595 L38.024,98.861 L59.849,96.865 C59.989,96.852 60.133,96.846 60.28,96.846 C60.729,96.846 61.203,96.906 61.678,97.016 L63.074,97.822 C62.788,98.605 63.035,99.519 63.758,100.339 C63.024,99.505 61.471,98.845 60.3,98.845 C60.208,98.845 60.118,98.849 60.031,98.857 L41.028,100.595" id="Fill-82" fill="#D5D6D0"></path>
                    <path d="M76.969,112.285 L65.381,99.154 L78.697,106.842 C79.224,107.146 79.915,107.298 80.606,107.298 C81.298,107.298 81.989,107.146 82.516,106.842 L91.655,101.565 C89.765,106.039 84.587,109.925 76.969,112.285" id="Fill-83" fill="#100C0C"></path>
                    <path d="M76.644,114.428 C76.361,114.428 76.087,114.308 75.894,114.09 L63.758,100.339 C63.035,99.519 62.788,98.605 63.074,97.822 L65.381,99.154 L76.969,112.285 C84.587,109.925 89.765,106.039 91.655,101.565 L94.221,100.083 C92.96,106.191 86.726,111.503 76.926,114.387 C76.833,114.414 76.738,114.428 76.644,114.428" id="Fill-84" fill="#D5D6D0"></path>
                    <path d="M80.606,107.298 C79.915,107.298 79.224,107.146 78.697,106.842 C79.224,107.145 79.916,107.298 80.606,107.298 L80.606,102.127 C81.298,102.127 81.989,101.975 82.516,101.671 L141.391,67.679 C141.919,67.374 142.182,66.975 142.182,66.576 C142.182,66.177 141.919,65.778 141.391,65.474 L129.865,58.819 L141.391,65.474 C142.446,66.083 143.3,67.563 143.3,68.781 L143.3,69.542 C143.3,70.76 142.445,72.24 141.39,72.849 L94.221,100.083 L82.516,106.842 C81.989,107.146 81.298,107.298 80.606,107.298" id="Fill-86" fill="#9CCFFF"></path>
                    <path d="M80.606,107.298 C79.916,107.298 79.224,107.145 78.697,106.842 L19.821,72.849 C18.767,72.24 17.912,70.76 17.912,69.542 L17.912,68.781 C17.912,67.563 18.767,66.083 19.821,65.474 C19.294,65.778 19.03,66.177 19.03,66.576 C19.03,66.975 19.294,67.374 19.821,67.679 L78.697,101.671 C79.224,101.975 79.915,102.127 80.606,102.127 L80.606,107.298" id="Fill-88" fill="#9CCFFF"></path>
                    <path d="M80.606,102.127 L80.606,102.127 C79.915,102.127 79.224,101.975 78.697,101.671 L19.821,67.679 C19.294,67.374 19.03,66.975 19.03,66.576 C19.03,66.177 19.294,65.778 19.821,65.474 L49.259,48.478 L35.823,56.235 L44.762,61.395 L35.824,66.556 L80.606,92.41 L89.545,87.249 L98.52,92.431 L141.394,67.677 C142.445,67.068 142.444,66.083 141.392,65.475 L129.865,58.819 L141.391,65.474 C141.919,65.778 142.182,66.177 142.182,66.576 C142.182,66.975 141.919,67.374 141.391,67.679 L82.516,101.671 C81.989,101.975 81.298,102.127 80.606,102.127" id="Fill-90" fill="#C6E4FF"></path>
                    <path d="M80.606,92.41 L94.041,84.654 L98.067,73.028 C98.316,72.312 97.909,71.844 97.165,71.987 L73.003,76.637 C72.258,76.78 71.853,76.311 72.101,75.596 L75.676,65.272 C75.924,64.556 75.511,64.041 74.758,64.128 L55.106,66.397 C54.353,66.484 54.047,66.018 54.426,65.362 L57.526,59.992 C57.905,59.336 57.606,58.916 56.861,59.059 L44.78,61.385 L35.824,66.556 L80.606,92.41" id="Fill-92" fill="#0082FF"></path>
                    <path d="M98.52,92.431 L89.545,87.249 L94.041,84.654 L94.041,84.653 L98.519,82.068 L100.749,75.63 L129.865,58.819 L141.392,65.475 C142.444,66.083 142.445,67.068 141.394,67.677 L98.52,92.431" id="Fill-93" fill="#BDDFFF"></path>
                    <path d="M94.041,84.653 L97.033,76.015 C97.243,76.095 97.468,76.157 97.701,76.199 C97.966,76.248 98.242,76.272 98.518,76.272 C98.518,76.272 98.518,76.272 98.519,76.272 C99.21,76.272 99.901,76.12 100.428,75.815 L100.749,75.63 L98.519,82.068 L94.041,84.653" id="Fill-94" fill="#100C0C"></path>
                    <polyline id="Fill-95" fill="#BDDFFF" points="44.762 61.395 35.823 56.235 49.259 48.478 60.427 54.926 53.736 56.214 44.762 61.395"></polyline>
                    <path d="M72.747,76.6620017 C72.169,76.663 71.883,76.224 72.101,75.596 L75.676,65.272 C75.906,64.609 75.569,64.118 74.92,64.118 C74.868,64.118 74.814,64.121 74.758,64.128 L55.106,66.397 C55.045,66.404 54.987,66.408 54.932,66.408 C54.308,66.408 54.078,65.965 54.426,65.362 L57.526,59.992 C57.855,59.423 57.673,59.031 57.133,59.031 C57.051,59.031 56.96,59.04 56.861,59.059 L44.78,61.385 L44.762,61.395 L53.736,56.214 L60.427,54.926 L91.775,73.024 L73.003,76.637 C72.912,76.654 72.826,76.6620017 72.747,76.6620017" id="Fill-96" fill="#100C0C"></path>
                    <path d="M89.545,87.249 L44.762,61.395 L44.78,61.385 L56.861,59.059 C56.96,59.04 57.051,59.031 57.133,59.031 C57.673,59.031 57.855,59.423 57.526,59.992 L54.426,65.362 C54.078,65.965 54.308,66.408 54.932,66.408 C54.987,66.408 55.045,66.404 55.106,66.397 L74.758,64.128 C74.814,64.121 74.868,64.118 74.92,64.118 C75.569,64.118 75.906,64.609 75.676,65.272 L72.101,75.596 C71.883,76.224 72.169,76.663 72.747,76.662 C72.826,76.662 72.912,76.654 73.003,76.637 L91.775,73.024 L96.609,75.815 C96.613,75.818 96.617,75.82 96.621,75.822 C96.75,75.896 96.888,75.96 97.033,76.015 L94.041,84.653 L94.041,84.654 L89.545,87.249" id="Fill-97" fill="#0082FF"></path>
                    <path d="M98.519,76.272 C98.518,76.272 98.518,76.272 98.518,76.272 L98.518,71.101 C98.518,71.101 98.518,71.101 98.519,71.101 C99.21,71.101 99.901,70.949 100.428,70.644 L159.303,36.653 C159.831,36.349 160.094,35.949 160.094,35.55 C160.094,35.154 159.835,34.759 159.316,34.455 C160.365,35.068 161.212,36.543 161.212,37.756 L161.212,38.516 C161.212,39.734 160.357,41.215 159.302,41.823 L100.428,75.815 C99.901,76.12 99.21,76.272 98.519,76.272" id="Fill-99" fill="#9CCFFF"></path>
                    <path d="M97.701,76.199 C97.307,76.127 96.935,76.002 96.621,75.822 C96.935,76.002 97.307,76.127 97.701,76.199" id="Fill-100" fill="#97D1C9"></path>
                    <path d="M96.609,75.815 L37.733,41.824 C37.083,41.448 36.508,40.74 36.163,39.967 C36.508,40.74 37.082,41.448 37.733,41.823 L96.609,75.815" id="Fill-101" fill="#97D1C9"></path>
                    <path d="M98.518,76.272 C97.828,76.272 97.136,76.12 96.609,75.815 L37.733,41.823 C36.679,41.215 35.824,39.734 35.824,38.516 L35.824,37.755 C35.824,36.537 36.679,35.056 37.733,34.448 L40.302,32.965 L37.733,34.448 C37.206,34.752 36.943,35.151 36.943,35.55 C36.943,35.949 37.206,36.349 37.733,36.653 L96.609,70.644 C97.136,70.949 97.827,71.101 98.518,71.101 L98.518,76.272" id="Fill-103" fill="#9CCFFF"></path>
                    <path d="M98.519,71.101 C98.518,71.101 98.518,71.101 98.518,71.101 C97.827,71.101 97.136,70.949 96.609,70.644 L37.733,36.653 C37.206,36.349 36.943,35.949 36.943,35.55 C36.943,35.151 37.206,34.752 37.733,34.448 L96.608,0.456 C97.136,0.152 97.827,2.84217094e-13 98.518,2.84217094e-13 C99.209,2.84217094e-13 99.9,0.152 100.427,0.456 L159.303,34.448 C159.831,34.752 160.094,35.151 160.094,35.55 C160.094,35.949 159.831,36.349 159.303,36.653 L100.428,70.644 C99.901,70.949 99.21,71.101 98.519,71.101" id="Fill-105" fill="#BDDFFF"></path>
                    <path d="M58.071,31.779 L87.531,14.785 C88.059,14.48 88.914,14.481 89.441,14.785 L94.208,17.539 C94.735,17.844 94.735,18.337 94.208,18.641 L64.747,35.636 C64.22,35.939 63.365,35.939 62.838,35.635 L58.07,32.881 C57.543,32.577 57.543,32.083 58.071,31.779" id="Fill-106" fill="#0082FF"></path>
                    <path d="M71.505,39.535 L91.986,27.71 C92.514,27.405 93.368,27.405 93.896,27.71 L98.663,30.464 C99.19,30.768 99.19,31.262 98.663,31.566 L78.181,43.391 C77.654,43.695 76.799,43.695 76.272,43.391 L71.505,40.638 C70.978,40.333 70.978,39.84 71.505,39.535" id="Fill-107" fill="#100C0C"></path>
                    <path d="M84.939,47.291 L118.855,27.71 C119.382,27.405 120.237,27.405 120.764,27.71 L125.532,30.464 C126.059,30.768 126.059,31.262 125.532,31.566 L91.616,51.147 C91.088,51.452 90.233,51.452 89.706,51.147 L84.939,48.393 C84.412,48.089 84.412,47.596 84.939,47.291" id="Fill-108" fill="#100C0C"></path>
                    <path d="M98.374,55.048 L114.377,45.808 C114.904,45.504 115.759,45.504 116.286,45.808 L121.053,48.561 C121.581,48.866 121.581,49.359 121.053,49.664 L105.05,58.903 C104.523,59.208 103.668,59.208 103.14,58.903 L98.374,56.15 C97.846,55.846 97.846,55.351 98.374,55.048" id="Fill-109" fill="#100C0C"></path>
                </g>
                <g id="Group-27" transform="translate(918.000000, 111.000000)">
                    <path d="M14.9585456,35.57275 L14.9585456,25.23075 L6.13854562,23.53275 C5.75854562,23.45975 5.42354562,23.54775 5.15154562,23.71875 L5.14554562,23.70775 L0.747545619,26.24775 L6.47254562,27.40675 L14.9585456,35.57275" id="Fill-30" fill="#E4E4DE"></path>
                    <path d="M75.0845456,93.91075 L75.7445456,93.53075 C76.7995456,92.92175 77.6535456,91.44075 77.6535456,90.22275 L77.6535456,37.75675 C77.6535456,36.53875 76.7985456,35.05775 75.7435456,34.44875 L16.8685456,0.45675 C15.8145456,-0.15225 14.1045456,-0.15225 13.0495456,0.45675 L12.3905456,0.83775 C11.3355456,1.44675 10.4815456,2.92775 10.4815456,4.14475 L10.4815456,56.61275 C10.4815456,57.82975 11.3355456,59.31075 12.3905456,59.91975 L71.2665456,93.91075 C72.3205456,94.51975 74.0295456,94.51975 75.0845456,93.91075" id="Fill-31" fill="#E4E4DE"></path>
                    <path d="M77.6535456,71.74775 L77.6535456,37.75675 C77.6535456,37.14775 77.4405456,36.47275 77.0945456,35.87475 L68.6965456,40.72175 L68.6965456,92.42875 L71.2655456,93.91075 C72.3195456,94.51975 74.0285456,94.51975 75.0835456,93.91175 L75.7455456,93.52975 C76.8005456,92.91975 77.6535456,91.44075 77.6535456,90.22275 L77.6535456,71.74775" id="Fill-32" fill="#D4D5CF"></path>
                    <path d="M12.3905456,3.04275 L71.2665456,37.03475 C72.3205456,37.64275 73.1755456,39.12375 73.1755456,40.34175 L73.1755456,92.80875 C73.1755456,94.02675 72.3205456,94.51975 71.2665456,93.91075 L12.3905456,59.91975 C11.3355456,59.31075 10.4815456,57.82975 10.4815456,56.61275 L10.4815456,4.14475 C10.4815456,2.92775 11.3355456,2.43375 12.3905456,3.04275" id="Fill-33" fill="#ECECEC"></path>
                    <path d="M10.4815456,38.15875 L0.432545619,28.48975 C-0.566454381,27.52875 0.299545619,25.85675 1.66054562,26.11875 L10.4805456,27.81675 L10.4815456,38.15875" id="Fill-34" fill="#EAEAE5"></path>
                    <path d="M40.7315456,47.08475 C40.9745456,47.30675 40.9665456,47.68575 40.9665456,47.68575 C40.9665456,55.89675 46.8455456,65.76075 53.8625456,70.02275 C61.1645456,74.45775 66.9635456,71.14175 66.7595456,62.57675 C66.5745456,54.82975 61.6065456,45.46675 55.0485456,40.98775 L55.4395456,40.76375 L55.4395456,40.10675 C62.3585456,45.00775 67.7515456,54.92275 67.7515456,63.15075 C67.7515456,71.99375 61.5215456,75.59075 53.8625456,71.16975 C46.2045456,66.74775 39.9115456,55.91975 39.9745456,47.11375 C40.0425456,46.78275 40.4915456,46.86675 40.7315456,47.08475" id="Fill-35" fill="#100C0C"></path>
                    <path d="M38.5935456,46.39275 C38.5935456,36.75975 45.3805456,32.84075 53.7235456,37.65775 C57.3815456,39.76975 60.9125456,43.33675 63.6665456,47.70075 L61.3825456,49.40575 C59.2615456,46.04375 56.5415456,43.29575 53.7225456,41.66875 C47.2965456,37.95875 42.0675456,40.97775 42.0675456,48.39875 C42.0675456,55.81975 47.2965456,64.87575 53.7235456,68.58675 C60.1505456,72.29675 65.3785456,69.27775 65.3785456,61.85675 L68.8525456,63.86275 C68.8525456,73.49575 62.0655456,77.41375 53.7225456,72.59775 C45.3805456,67.78175 38.5935456,56.02575 38.5935456,46.39275" id="Fill-36" fill="#0082FF"></path>
                    <path d="M53.7125456,44.97175 C58.5725456,47.77775 62.5135456,54.60175 62.5135456,60.21375 C62.5135456,65.82675 58.5725456,68.10075 53.7125456,65.29475 C48.8535456,62.48875 44.9125456,55.66475 44.9125456,50.05275 C44.9125456,44.44075 48.8535456,42.16575 53.7125456,44.97175" id="Fill-37" fill="#100C0C"></path>
                    <path d="M18.9785456,18.66675 L34.0275456,27.35475 C34.8185456,27.81175 35.4585456,28.82475 35.4585456,29.61875 C35.4585456,30.41275 34.8185456,30.68575 34.0275456,30.22975 L18.9785456,21.54175 C18.1875456,21.08475 17.5455456,20.07175 17.5455456,19.27775 C17.5465456,18.48375 18.1875456,18.20975 18.9785456,18.66675" id="Fill-38" fill="#D4D5CF"></path>
                    <path d="M18.9785456,26.10475 L34.0275456,34.79275 C34.8185456,35.24975 35.4585456,36.26375 35.4585456,37.05775 C35.4585456,37.85075 34.8185456,38.12475 34.0275456,37.66775 L18.9785456,28.97975 C18.1875456,28.52375 17.5455456,27.50975 17.5455456,26.71575 C17.5465456,25.92175 18.1875456,25.64775 18.9785456,26.10475" id="Fill-39" fill="#D4D5CF"></path>
                    <path d="M18.9785456,33.54375 L34.0275456,42.23175 C34.8185456,42.68775 35.4585456,43.70175 35.4585456,44.49575 C35.4585456,45.28975 34.8185456,45.56275 34.0275456,45.10675 L18.9785456,36.41875 C18.1875456,35.96175 17.5455456,34.94775 17.5455456,34.15475 C17.5465456,33.35975 18.1875456,33.08675 18.9785456,33.54375" id="Fill-40" fill="#D4D5CF"></path>
                    <path d="M18.9785456,40.98175 L34.0275456,49.66975 C34.8185456,50.12675 35.4585456,51.13975 35.4585456,51.93375 C35.4585456,52.72775 34.8185456,53.00175 34.0275456,52.54475 L18.9785456,43.85675 C18.1875456,43.40075 17.5455456,42.38675 17.5455456,41.59275 C17.5465456,40.79875 18.1875456,40.52475 18.9785456,40.98175" id="Fill-41" fill="#D4D5CF"></path>
                    <path d="M18.9785456,48.41975 L34.0275456,57.10875 C34.8185456,57.56475 35.4585456,58.57875 35.4585456,59.37275 C35.4585456,60.16675 34.8185456,60.43975 34.0275456,59.98275 L18.9785456,51.29575 C18.1875456,50.83875 17.5455456,49.82475 17.5455456,49.03075 C17.5465456,48.23675 18.1875456,47.96375 18.9785456,48.41975" id="Fill-42" fill="#D4D5CF"></path>
                </g>
            </g>
        </g>
    </g>
</svg>