<?xml version="1.0" encoding="UTF-8"?>
<svg width="1081px" height="970px" viewBox="0 0 1081 970" version="1.1" xmlns="http://www.w3.org/2000/svg" xmlns:xlink="http://www.w3.org/1999/xlink">
    <!-- Generator: Sketch 61 (89581) - https://sketch.com -->
    <title>Group 8</title>
    <desc>Created with Sketch.</desc>
    <defs>
        <polygon id="path-1" points="0.848710734 0.286254927 603.74607 0.286254927 603.74607 971.758529 0.848710734 971.758529"></polygon>
    </defs>
    <g id="Page-1" stroke="none" stroke-width="1" fill="none" fill-rule="evenodd" opacity="0.190731957">
        <g id="one-pager" transform="translate(-838.000000, -7810.000000)">
            <g id="Group-8" transform="translate(838.000000, 7810.000000)">
                <path d="M456.454892,674.117794 L456.454892,641.179026 L290.326165,666.63171 C239.439888,674.117794 199.030198,702.564911 199.030198,759.459146 C199.030198,802.878431 230.459957,844.800499 294.816131,844.800499 C378.628822,844.800499 456.454892,804.375648 456.454892,674.117794 M220.008315,548.35159 L401.07865,521.401689 C442.984996,515.437776 456.454892,494.451788 456.454892,468.999104 C456.454892,416.621473 416.045202,373.177235 332.232511,373.177235 C245.426509,373.177235 197.533542,428.574253 191.546922,492.954572 L14.966552,455.524154 C26.9397936,340.238467 133.202313,213 330.735855,213 C564.214067,213 651.020069,344.755071 651.020069,492.954572 L651.020069,855.281016 C651.020069,894.183697 655.48509,946.611236 660,972.038966 L477.408065,972.038966 C472.9181,952.575149 469.924789,912.175251 469.924789,883.70318 C432.508409,942.094632 362.165615,993 252.909785,993 C95.785933,993 0,886.722567 0,771.411927 C0,639.681809 97.2825882,566.318191 220.008315,548.35159" id="Fill-1" fill="#00BFFF"></path>
                <g id="Group-5" transform="translate(477.000000, 0.000000)">
                    <mask id="mask-2" fill="white">
                        <use xlink:href="#path-1"></use>
                    </mask>
                    <g id="Clip-4"></g>
                    <path d="M365.748393,178.410878 L365.873069,178.410878 C365.873069,178.410878 364.726056,179.383882 362.905797,181.005556 L355.799304,187.392455 C301.09178,237.814028 37.0294843,503.818388 0.848710734,971.758529 L214.766599,971.758529 C258.17854,482.287553 530.444471,235.294197 603.753551,172.42316 L603.753551,0.276275397 L562.71044,0.276275397 L365.748393,178.410878 Z" id="Fill-3" fill="#0072E0" mask="url(#mask-2)"></path>
                </g>
                <polygon id="Fill-6" fill="#0072E0" points="342 0 342 179 604.56792 179 802 0"></polygon>
            </g>
        </g>
    </g>
</svg>