<?xml version="1.0" encoding="UTF-8"?>
<svg width="203px" height="32px" viewBox="0 0 203 32" version="1.1" xmlns="http://www.w3.org/2000/svg" xmlns:xlink="http://www.w3.org/1999/xlink">
    <!-- Generator: Sketch 61 (89581) - https://sketch.com -->
    <title>Group 54</title>
    <desc>Created with Sketch.</desc>
    <defs>
        <polygon id="path-1" points="0.0700654321 0.138233333 22.8937815 0.138233333 22.8937815 24.7037037 0.0700654321 24.7037037"></polygon>
        <polygon id="path-3" points="0.279008642 0.138018519 18.9149099 0.138018519 18.9149099 24.7037037 0.279008642 24.7037037"></polygon>
        <polygon id="path-5" points="0.11571358 0.138018519 24.3983802 0.138018519 24.3983802 24.7037037 0.11571358 24.7037037"></polygon>
        <polygon id="path-7" points="0.0968098765 0.138233333 22.9205259 0.138233333 22.9205259 24.7037037 0.0968098765 24.7037037"></polygon>
        <polygon id="path-9" points="0.342522222 0.258279012 19.3079136 0.258279012 19.3079136 30.7999333 0.342522222 30.7999333"></polygon>
    </defs>
    <g id="Page-1" stroke="none" stroke-width="1" fill="none" fill-rule="evenodd">
        <g id="one-pager" transform="translate(-158.000000, -7941.000000)">
            <g id="Group-54" transform="translate(158.000000, 7941.000000)">
                <path d="M14.3532099,21.4350099 L14.3532099,20.3992444 L9.12962963,21.2001457 C7.52961728,21.4350099 6.25898765,22.3289975 6.25898765,24.1173309 C6.25898765,25.482479 7.2471358,26.8000099 9.27069136,26.8000099 C11.9061111,26.8000099 14.3532099,25.5293802 14.3532099,21.4350099 M6.91775309,17.4820593 L12.6117778,16.6349728 C13.9296667,16.4470099 14.3532099,15.7875284 14.3532099,14.9880593 C14.3532099,13.3411457 13.0825802,11.9759975 10.4471605,11.9759975 C7.71758025,11.9759975 6.2117284,13.7170716 6.02376543,15.7409852 L0.470802469,14.564516 C0.84708642,10.9405901 4.18817284,6.94073827 10.3999012,6.94073827 C17.7415556,6.94073827 20.4711358,11.0820099 20.4711358,15.7409852 L20.4711358,27.1293926 C20.4711358,28.3524049 20.6118395,30.0003926 20.7532593,30.7998617 L15.0119753,30.7998617 C14.8705556,30.1879975 14.7767531,28.9177259 14.7767531,28.0230222 C13.600284,29.8586148 11.3884074,31.4586272 7.95316049,31.4586272 C3.0117037,31.4586272 6.10540425e-14,28.1175407 6.10540425e-14,24.4936148 C6.10540425e-14,20.3530593 3.05896296,18.0463062 6.91775309,17.4820593" id="Fill-1" fill="#FFFFFF"></path>
                <polygon id="Fill-3" fill="#FFFFFF" points="41.9777506 7.64669136 46.9664667 22.5645062 51.248442 7.64669136 57.4605284 7.64669136 50.2130346 30.7997901 43.9544049 30.7997901 38.5425037 14.9879877 33.224763 30.7997901 26.8716148 30.7997901 19.4830593 7.64669136 26.0714296 7.64669136 30.354121 22.5176049 35.3893802 7.64669136"></polygon>
                <g id="Group-7" transform="translate(55.493827, 6.802469)">
                    <mask id="mask-2" fill="white">
                        <use xlink:href="#path-1"></use>
                    </mask>
                    <g id="Clip-6"></g>
                    <path d="M16.7289543,9.78556667 C16.6351519,7.4791716 15.1293,5.22039383 11.5526333,5.22039383 C8.30570741,5.22039383 6.51737407,7.66749259 6.37595432,9.78556667 L16.7289543,9.78556667 Z M22.5643988,17.3617272 C21.3879296,21.361579 17.7174605,24.7037395 12.0230778,24.7037395 C5.67028765,24.7037395 0.0700654321,20.1385667 0.0700654321,12.3264679 C0.0700654321,4.93827037 5.5288679,0.138233333 11.4581148,0.138233333 C18.6118062,0.138233333 22.8937815,4.70340617 22.8937815,12.1385049 C22.8937815,13.0324926 22.799621,13.9737395 22.799621,14.068258 L6.23453457,14.068258 C6.37595432,17.126863 8.96447284,19.3390975 12.070337,19.3390975 C14.9878802,19.3390975 16.5878926,17.8794309 17.3408185,15.8089741 L22.5643988,17.3617272 Z" id="Fill-5" fill="#FFFFFF" mask="url(#mask-2)"></path>
                </g>
                <g id="Group-10" transform="translate(78.407407, 6.802469)">
                    <mask id="mask-4" fill="white">
                        <use xlink:href="#path-3"></use>
                    </mask>
                    <g id="Clip-9"></g>
                    <path d="M5.64400864,16.3737222 C5.7854284,18.2089568 7.14986049,19.9031296 9.87944074,19.9031296 C11.9498975,19.9031296 12.9384037,18.821179 12.9384037,17.5978086 C12.9384037,16.5620432 12.232379,15.7149568 10.4440457,15.3379568 L7.38544074,14.6326481 C2.9144284,13.6445 0.891230864,10.962179 0.891230864,7.71489506 C0.891230864,3.57362346 4.5617,0.138018519 9.55005802,0.138018519 C16.1384284,0.138018519 18.3499469,4.32654938 18.6327864,6.82054938 L13.4088481,7.99701852 C13.2205272,6.63258642 12.232379,4.8907963 9.59731728,4.8907963 C7.95004568,4.8907963 6.63251481,5.87966049 6.63251481,7.19719136 C6.63251481,8.32640123 7.47924321,9.03278395 8.74987284,9.26764815 L12.044058,9.97403086 C16.6088728,10.9145617 18.9149099,13.6914012 18.9149099,17.0801049 C18.9149099,20.8447346 15.9973667,24.7038827 9.92634198,24.7038827 C2.96132963,24.7038827 0.561848148,20.1859691 0.279008642,17.5501914 L5.64400864,16.3737222 Z" id="Fill-8" fill="#FFFFFF" mask="url(#mask-4)"></path>
                </g>
                <g id="Group-13" transform="translate(97.740741, 6.802469)">
                    <mask id="mask-6" fill="white">
                        <use xlink:href="#path-5"></use>
                    </mask>
                    <g id="Clip-12"></g>
                    <path d="M18.1397506,12.4204136 C18.1397506,8.04427778 15.3160099,5.83240123 12.2570469,5.83240123 C9.19844198,5.83240123 6.37470123,8.04427778 6.37470123,12.4204136 C6.37470123,16.7507222 9.19844198,19.0095 12.2570469,19.0095 C15.3160099,19.0095 18.1397506,16.7972654 18.1397506,12.4204136 M24.3983802,12.4204136 C24.3983802,19.5264877 19.1748,24.7038827 12.2570469,24.7038827 C5.33965185,24.7038827 0.11571358,19.5264877 0.11571358,12.4204136 C0.11571358,5.2677963 5.33965185,0.138018519 12.2570469,0.138018519 C19.1748,0.138018519 24.3983802,5.2677963 24.3983802,12.4204136" id="Fill-11" fill="#FFFFFF" mask="url(#mask-6)"></path>
                </g>
                <path d="M123.630115,30.7999333 L123.630115,7.64683457 L129.606621,7.64683457 L129.606621,10.4702173 C130.877609,8.21143951 133.842053,6.98806914 136.383312,6.98806914 C139.536436,6.98806914 142.077695,8.35214321 143.254164,10.8472173 C145.089399,8.02276049 147.536498,6.98806914 150.595102,6.98806914 C154.877794,6.98806914 158.971806,9.57622963 158.971806,15.7876 L158.971806,30.7999333 L152.90114,30.7999333 L152.90114,17.0582296 C152.90114,14.5642296 151.677769,12.6824519 148.807127,12.6824519 C146.124806,12.6824519 144.524794,14.7529086 144.524794,17.2469086 L144.524794,30.7999333 L138.312707,30.7999333 L138.312707,17.0582296 C138.312707,14.5642296 137.042078,12.6824519 134.218695,12.6824519 C131.489115,12.6824519 129.88946,14.7052914 129.88946,17.2469086 L129.88946,30.7999333 L123.630115,30.7999333 Z" id="Fill-14" fill="#FFFFFF"></path>
                <g id="Group-18" transform="translate(160.037037, 6.802469)">
                    <mask id="mask-8" fill="white">
                        <use xlink:href="#path-7"></use>
                    </mask>
                    <g id="Clip-17"></g>
                    <path d="M16.7560568,9.78556667 C16.6618963,7.4791716 15.1560444,5.22039383 11.5793778,5.22039383 C8.33245185,5.22039383 6.54411852,7.66749259 6.40269877,9.78556667 L16.7560568,9.78556667 Z M22.5911432,17.3617272 C21.4146741,21.361579 17.7442049,24.7037395 12.0498222,24.7037395 C5.6970321,24.7037395 0.0968098765,20.1385667 0.0968098765,12.3264679 C0.0968098765,4.93827037 5.55561235,0.138233333 11.4855753,0.138233333 C18.6381926,0.138233333 22.9205259,4.70340617 22.9205259,12.1385049 C22.9205259,13.0324926 22.8267235,13.9737395 22.8267235,14.068258 L6.26163704,14.068258 C6.40269877,17.126863 8.99121728,19.3390975 12.0970815,19.3390975 C15.0146247,19.3390975 16.614637,17.8794309 17.367563,15.8089741 L22.5911432,17.3617272 Z" id="Fill-16" fill="#FFFFFF" mask="url(#mask-8)"></path>
                </g>
                <g id="Group-21" transform="translate(183.666667, 0.000000)">
                    <mask id="mask-10" fill="white">
                        <use xlink:href="#path-9"></use>
                    </mask>
                    <g id="Clip-20"></g>
                    <path d="M11.8215099,5.85814321 L11.8254481,5.85814321 C11.8254481,5.85814321 11.7900037,5.88821728 11.7320037,5.93941481 L11.5085963,6.14098272 C9.7875716,7.72595802 1.48104074,16.0886988 0.342522222,30.7999333 L7.07231235,30.7999333 C8.43710247,15.4116741 17.0021272,7.64683457 19.3081642,5.66982222 L19.3081642,0.258279012 L18.0174852,0.258279012 L11.8215099,5.85814321 Z" id="Fill-19" fill="#0082FF" mask="url(#mask-10)"></path>
                </g>
                <polygon id="Fill-22" fill="#0082FF" points="179.7739 0.25824321 179.7739 5.85810741 188.014196 5.85810741 194.209814 0.25824321"></polygon>
            </g>
        </g>
    </g>
</svg>