<?xml version="1.0" encoding="UTF-8"?>
<svg width="249px" height="124px" viewBox="0 0 249 124" version="1.1" xmlns="http://www.w3.org/2000/svg" xmlns:xlink="http://www.w3.org/1999/xlink">
    <!-- Generator: Sketch 61 (89581) - https://sketch.com -->
    <title>Group 42</title>
    <desc>Created with Sketch.</desc>
    <defs>
        <linearGradient x1="47.9694069%" y1="62.3998%" x2="50%" y2="43.9336331%" id="linearGradient-1">
            <stop stop-color="#FFFFFF" offset="0%"></stop>
            <stop stop-color="#FBE26B" offset="100%"></stop>
        </linearGradient>
    </defs>
    <g id="Page-1" stroke="none" stroke-width="1" fill="none" fill-rule="evenodd">
        <g id="one-pager" transform="translate(-802.000000, -5692.000000)">
            <g id="Group-42" transform="translate(802.000000, 5692.000000)">
                <path d="M61.9396807,124 L123.879361,93.0930931 L123.879361,31.031031 L61.9396807,0 L0,31.031031 L0,93.0930931 L61.9396807,124 Z M61.9396807,60.9449449 L52.0094714,55.97998 L76.3384843,43.8158158 L37.6106679,24.3283283 L13.1575274,36.6166166 L3.22731803,31.6516517 L61.9396807,2.23423423 L120.527916,31.6516517 L61.9396807,60.9449449 Z M86.2686936,38.8508509 L100.791625,31.6516517 L61.9396807,12.1641642 L47.4167496,19.3633634 L86.2686936,38.8508509 Z M60.9466598,23.8318318 L52.0094714,19.3633634 L60.9466598,15.019019 L60.9466598,23.8318318 Z M86.2686936,36.6166166 L62.9327017,24.8248248 L62.9327017,15.019019 L96.1989029,31.6516517 L86.2686936,36.6166166 Z M48.7821534,78.6946947 L38.6036888,73.6056056 L38.6036888,27.1831832 L71.8698901,43.8158158 L48.7821534,55.3593594 L48.7821534,78.6946947 Z M14.1505483,84.7767768 L14.1505483,38.3543544 L36.4935193,27.1831832 L36.4935193,73.6056056 L14.1505483,84.7767768 Z M60.9466598,121.269269 L1.98604187,91.8518519 L1.98604187,33.2652653 L12.1645064,38.3543544 L12.1645064,87.011011 L50.7681952,106.25025 L50.7681952,57.5935936 L60.9466598,62.6826827 L60.9466598,121.269269 Z M62.9327017,121.269269 L62.9327017,62.6826827 L121.89332,33.2652653 L121.89332,91.8518519 L62.9327017,121.269269 Z M48.7821534,102.898899 L15.5159521,86.3903904 L37.6106679,75.3433433 L48.7821534,80.9289289 L48.7821534,102.898899 Z M187.060319,124 L249,93.0930931 L249,31.031031 L187.060319,0 L125.120639,31.031031 L125.120639,93.0930931 L187.060319,124 Z M211.389332,48.7807808 L199.224826,42.6986987 L187.060319,48.7807808 L177.13011,43.8158158 L189.294616,37.7337337 L162.731306,24.3283283 L138.278166,36.6166166 L128.347957,31.6516517 L187.060319,2.23423423 L245.648554,31.6516517 L211.389332,48.7807808 Z M211.389332,38.8508509 L225.912263,31.6516517 L187.060319,12.1641642 L172.537388,19.3633634 L211.389332,38.8508509 Z M186.067298,23.8318318 L177.13011,19.3633634 L186.067298,15.019019 L186.067298,23.8318318 Z M211.389332,36.6166166 L188.05334,24.8248248 L188.05334,15.019019 L221.319541,31.6516517 L211.389332,36.6166166 Z M173.902792,78.6946947 L163.724327,73.6056056 L163.724327,27.1831832 L184.826022,37.7337337 L173.902792,43.1951952 L173.902792,78.6946947 Z M139.271187,84.7767768 L139.271187,38.3543544 L161.614158,27.1831832 L161.614158,73.6056056 L139.271187,84.7767768 Z M186.067298,121.269269 L127.10668,91.8518519 L127.10668,33.2652653 L137.285145,38.3543544 L137.285145,87.011011 L175.888834,106.25025 L175.888834,57.5935936 L186.067298,62.6826827 L186.067298,121.269269 Z M188.05334,121.269269 L188.05334,62.6826827 L198.231805,57.5935936 L198.231805,106.25025 L212.382353,99.2992993 L212.382353,50.5185185 L247.013958,33.2652653 L247.013958,91.8518519 L188.05334,121.269269 Z M210.396311,96.9409409 L200.217847,91.8518519 L200.217847,45.4294294 L210.396311,50.5185185 L210.396311,96.9409409 Z M198.231805,54.3663664 L189.294616,49.8978979 L198.231805,45.4294294 L198.231805,54.3663664 Z M175.888834,54.3663664 L175.888834,45.4294294 L184.826022,49.8978979 L175.888834,54.3663664 Z M187.060319,60.9449449 L177.13011,55.97998 L187.060319,51.015015 L196.990529,55.97998 L187.060319,60.9449449 Z M173.902792,102.898899 L140.636591,86.3903904 L162.731306,75.3433433 L173.902792,80.9289289 L173.902792,102.898899 Z M200.217847,102.898899 L200.217847,94.2102102 L209.155035,98.6786787 L200.217847,102.898899 Z" id="AR" fill="url(#linearGradient-1)" fill-rule="nonzero"></path>
                <path d="M61.9378882,1 L122,31.5606585 L62.9937888,62 L50.4379461,55.9742528 L74.173913,43.9732122 L38.6459627,25.7833957 L13.2046035,37.6373038 L2,31.5606585 L61.9378882,1 Z M62,13.4863185 L50.175057,19.3849219 L86.6369983,37.7230898 L98.125587,31.5 L62,13.4863185 Z" id="Combined-Shape" fill="#FBE26B"></path>
                <path d="M187.012678,1 L248,31.5 L211.82241,49.8863845 L199.189163,44.0851191 L187.012678,49.8863845 L199.189163,55.9742528 L187.012678,62 L175.830191,55.9742528 L186.018679,49.8863845 L175.830191,44.0851191 L187.012678,37.6928937 L162.874348,25.7833957 L138.267137,37.6928937 L127,31.5606585 L187.012678,1 Z M187.012678,13.4084609 L174.214943,19.3849219 L211.963562,37.6202548 L223.275261,31.5 L187.012678,13.4084609 Z" id="Combined-Shape" fill="#FBE26B"></path>
            </g>
        </g>
    </g>
</svg>